<?xml version="1.0" standalone="no"?>
<!DOCTYPE svg PUBLIC "-//W3C//DTD SVG 20010904//EN"
 "http://www.w3.org/TR/2001/REC-SVG-20010904/DTD/svg10.dtd">
<svg version="1.0" xmlns="http://www.w3.org/2000/svg"
 width="623.000000pt" height="623.000000pt" viewBox="0 0 623.000000 623.000000"
 preserveAspectRatio="xMidYMid meet">
<metadata>
Created by potrace 1.14, written by Peter Selinger 2001-2017
</metadata>
<g transform="translate(0.000000,623.000000) scale(0.100000,-0.100000)"
fill="#000000" stroke="none">
<path d="M2 4258 c1 -1085 4 -1927 5 -1870 3 79 7 102 18 102 7 0 16 10 18 23
3 13 5 6 6 -18 2 -22 5 -34 8 -27 3 8 30 12 86 11 45 0 76 -3 70 -6 -7 -2 -13
-16 -13 -30 0 -23 3 -25 33 -19 66 14 126 18 144 11 10 -5 41 -9 68 -10 81 -2
190 -17 196 -26 3 -5 20 -4 39 3 26 8 35 9 38 0 2 -7 11 -12 21 -12 9 0 21 -4
27 -9 5 -6 32 -6 64 -2 30 5 43 9 28 10 -21 1 -25 5 -21 21 6 22 12 23 122 20
57 -1 78 -6 95 -21 11 -11 31 -22 43 -25 13 -4 23 -12 23 -20 0 -10 13 -14 41
-14 30 0 40 -4 36 -13 -4 -10 8 -13 46 -14 35 -1 53 -6 59 -17 13 -23 55 -20
63 4 9 27 19 25 33 -5 8 -16 20 -25 35 -25 12 0 30 -9 40 -20 9 -11 23 -17 32
-14 8 4 15 2 15 -4 0 -5 19 -12 43 -15 23 -3 57 -9 75 -12 19 -5 32 -3 32 3 0
5 21 10 48 10 94 1 109 3 88 11 -16 6 -17 8 -4 13 9 4 21 1 27 -5 6 -6 11 -8
11 -4 0 12 53 -19 103 -60 26 -22 64 -49 85 -60 62 -33 116 -65 127 -73 25
-19 234 -123 312 -156 128 -53 133 -55 139 -81 10 -39 -4 -67 -48 -98 -23 -16
-74 -55 -114 -87 -40 -32 -76 -58 -81 -58 -5 0 -32 11 -61 25 -97 47 -146 49
-218 12 -35 -18 -72 -13 -185 27 -136 48 -309 75 -484 75 -288 1 -375 -30
-715 -256 -97 -65 -132 -83 -160 -83 -66 0 -162 -21 -211 -45 -26 -14 -59 -25
-71 -25 -13 0 -76 -14 -140 -32 -107 -29 -118 -35 -118 -55 0 -27 8 -28 58 -7
43 18 173 47 180 39 3 -2 -16 -23 -40 -45 -25 -22 -72 -72 -104 -112 -33 -39
-67 -80 -77 -90 -11 -11 -17 -30 -15 -46 3 -25 8 -21 64 53 34 45 108 124 164
178 83 79 111 100 153 112 28 8 62 15 75 15 24 0 24 -1 8 -26 -10 -14 -16 -29
-14 -35 3 -10 43 14 216 125 210 137 361 223 426 244 137 45 420 54 596 18
104 -21 303 -88 308 -104 2 -8 -37 -52 -87 -99 -81 -76 -108 -113 -83 -113 4
0 60 48 122 106 122 113 192 164 223 164 28 0 135 -50 141 -66 5 -14 -29 -44
-52 -44 -19 0 -158 -65 -166 -78 -11 -18 7 -21 49 -7 21 8 41 12 44 9 3 -2
-24 -35 -60 -72 -109 -112 -159 -173 -159 -194 0 -12 41 -59 105 -121 101 -97
158 -170 170 -220 7 -28 -52 -147 -139 -277 -31 -47 -59 -95 -62 -108 -8 -29
6 -49 121 -177 112 -124 121 -147 76 -182 -48 -37 -39 -70 10 -41 17 10 23 10
26 1 3 -7 14 -13 24 -13 18 0 20 4 13 48 -10 71 -14 78 -128 210 -58 67 -106
131 -106 140 0 10 30 65 67 123 91 141 133 224 133 262 0 67 -80 172 -206 273
-22 17 -45 43 -53 57 -13 24 -12 30 15 68 16 23 72 86 124 139 80 81 160 149
441 378 42 34 60 25 93 -42 38 -80 44 -128 19 -153 -49 -49 -213 -258 -237
-303 -41 -75 -10 -62 45 18 74 107 209 272 223 272 14 0 39 -64 75 -186 26
-90 26 -102 -2 -144 -24 -36 -149 -258 -207 -365 -81 -153 -162 -416 -185
-599 -20 -168 -20 -196 3 -196 17 0 20 12 26 110 8 135 26 229 77 390 49 159
59 174 112 167 74 -10 90 12 27 37 -22 9 -40 23 -40 31 0 17 67 154 125 255
21 36 46 81 57 100 45 79 58 63 58 -72 0 -100 11 -124 31 -71 20 52 11 162
-25 297 -19 72 -33 134 -30 138 3 5 60 5 127 2 115 -6 126 -5 196 20 90 32
194 108 278 204 32 37 66 76 77 87 10 11 25 31 34 45 9 14 42 59 73 100 31 41
85 125 119 186 34 62 75 127 91 145 16 19 38 52 49 74 36 71 65 122 76 136 7
8 27 43 44 79 18 36 43 79 56 97 13 17 24 34 24 37 0 13 62 101 71 101 6 0 19
-22 29 -48 24 -61 37 -77 66 -77 41 0 47 31 41 182 -3 76 -2 138 2 138 13 0
20 -24 27 -87 5 -42 15 -64 40 -95 19 -22 34 -44 34 -49 0 -13 115 -285 145
-343 14 -27 25 -56 25 -64 0 -31 -170 -173 -370 -310 -41 -28 -96 -66 -121
-84 -127 -90 -229 -161 -279 -194 -30 -21 -88 -60 -129 -88 -41 -28 -103 -71
-139 -96 -43 -29 -73 -59 -85 -84 -19 -37 -20 -45 -7 -191 15 -184 14 -187
-93 -257 -40 -26 -122 -87 -184 -135 -61 -48 -155 -122 -209 -163 -157 -122
-169 -140 -219 -360 -20 -89 -62 -224 -82 -262 -13 -27 -12 -28 9 -28 19 0 27
12 50 73 30 83 73 242 83 307 11 78 24 105 73 152 39 38 217 176 410 317 194
142 188 138 202 187 11 37 11 64 2 134 -7 48 -12 112 -12 143 0 75 24 102 189
211 186 125 347 236 421 289 36 26 110 79 165 117 55 38 138 101 183 141 46
39 114 95 152 123 37 28 103 79 145 114 43 35 86 62 99 62 26 0 76 -48 76 -73
0 -10 -28 -43 -62 -74 -35 -32 -144 -137 -243 -234 -202 -197 -397 -375 -643
-587 -172 -148 -292 -261 -292 -274 0 -22 5 -18 415 337 131 113 327 296 630
588 107 103 200 187 206 187 39 0 -72 -135 -471 -574 -249 -274 -400 -453
-400 -474 0 -23 25 0 124 117 102 120 233 266 301 335 22 23 74 79 115 126 41
47 98 110 125 140 61 66 140 160 180 215 17 22 61 73 99 113 75 79 73 78 159
56 24 -5 40 3 120 63 246 186 371 264 562 351 130 60 293 118 359 127 l46 7 0
734 c0 404 -2 734 -4 734 -1 0 -50 -12 -107 -26 -57 -14 -146 -30 -198 -35
-52 -6 -122 -16 -155 -23 -34 -8 -115 -26 -181 -40 -66 -15 -169 -38 -230 -51
-60 -13 -168 -31 -240 -40 -74 -10 -167 -29 -215 -45 -53 -17 -124 -32 -190
-37 -122 -11 -126 -9 -155 78 -25 73 -19 79 73 79 51 0 85 5 97 14 19 13 19
15 -8 69 -15 31 -27 65 -27 77 0 67 81 126 240 173 122 37 245 96 245 117 0 7
-25 21 -55 32 -30 10 -66 29 -80 43 -14 14 -55 36 -90 50 -108 42 -150 96
-150 192 0 32 -4 63 -8 69 -4 6 -39 20 -77 32 -93 28 -140 64 -160 124 -10 30
-32 61 -62 88 -56 52 -82 109 -83 177 0 97 28 129 133 148 l61 11 12 49 c17
65 43 97 90 113 48 16 100 9 162 -22 36 -18 71 -25 153 -31 l105 -7 19 41 c32
71 72 98 158 106 42 4 107 4 146 0 l70 -7 49 49 c53 53 105 83 144 83 57 1 53
16 -24 92 -60 58 -77 82 -86 117 -6 25 -9 48 -6 53 3 4 -454 8 -1014 8 l-1020
0 32 -35 c34 -37 56 -45 56 -20 0 28 15 15 60 -52 59 -87 110 -139 121 -122 4
8 10 11 12 9 12 -13 47 -101 47 -117 0 -10 14 -27 30 -36 17 -10 30 -22 30
-26 0 -5 16 -29 35 -54 19 -25 35 -57 35 -70 0 -13 8 -35 18 -48 10 -13 26
-41 37 -62 11 -20 28 -40 37 -43 20 -6 41 -48 51 -102 4 -18 17 -43 30 -55 13
-12 32 -35 43 -51 l19 -30 -22 6 c-43 11 -38 -27 15 -115 61 -102 63 -108 44
-130 -14 -16 -14 -23 6 -80 15 -43 20 -74 16 -103 -4 -24 3 -95 15 -170 13
-78 23 -183 24 -264 l2 -134 -49 -9 c-27 -4 -58 -14 -70 -22 -31 -23 -44 -18
-51 18 -4 17 -13 42 -21 53 -12 20 -11 22 6 27 62 16 -31 108 -97 95 -28 -5
-31 -84 -4 -107 25 -22 27 -31 6 -31 -30 0 -15 -40 25 -68 43 -30 47 -49 8
-44 -13 2 -30 -4 -37 -12 -11 -13 -8 -21 19 -47 17 -18 36 -43 41 -56 13 -34
12 -253 -1 -253 -19 0 -50 64 -50 103 0 73 -51 364 -101 572 -64 271 -67 280
-104 329 -17 22 -37 55 -45 72 -20 41 -63 89 -130 144 -30 25 -61 51 -68 57
-7 7 -17 13 -22 13 -5 0 -15 6 -22 13 -8 6 -23 17 -33 23 -31 17 -42 48 -75
219 -18 88 -34 170 -37 183 -5 20 -1 22 33 23 57 1 88 13 92 32 7 35 -109 52
-135 20 -11 -14 -15 -15 -20 -4 -30 73 -159 311 -178 329 -14 13 -49 30 -77
39 -68 20 -84 40 -56 71 13 13 34 22 52 22 35 1 132 32 148 48 5 5 7 19 3 31
-6 19 -14 21 -77 21 -67 0 -72 -1 -126 -45 -32 -24 -64 -53 -72 -65 -12 -17
-25 -20 -86 -20 -105 0 -164 -10 -164 -27 0 -8 7 -30 16 -49 24 -50 10 -65
-15 -16 -12 24 -26 40 -32 36 -6 -3 -77 -7 -158 -8 -125 -1 -150 -4 -174 -21
-30 -19 -30 -22 -11 -97 9 -38 -5 -35 -55 12 -29 28 -51 40 -71 40 -34 0 -39
-19 -15 -60 15 -27 20 -70 8 -70 -5 0 -18 18 -30 39 -16 28 -32 41 -54 46
l-31 7 31 32 c37 38 39 56 9 56 -26 0 -87 -34 -104 -58 -8 -11 -13 -12 -18 -4
-9 15 -62 16 -71 2 -3 -5 -15 -10 -25 -10 -25 0 -65 -54 -81 -110 -7 -25 -16
-49 -21 -54 -4 -6 -28 12 -56 44 -47 53 -49 53 -81 42 -19 -7 -45 -12 -57 -12
-14 0 -24 -6 -24 -13 0 -15 31 -47 46 -47 5 0 19 -8 32 -18 23 -18 22 -18 -95
-41 -78 -16 -125 -30 -139 -43 -22 -20 -38 -67 -50 -148 -5 -36 -8 -41 -14
-24 -5 11 -8 44 -8 74 -1 32 -7 59 -15 67 -12 12 -18 9 -40 -21 -29 -37 -61
-119 -71 -178 -12 -68 -27 -54 -24 21 2 78 -9 104 -37 81 -8 -7 -15 -16 -15
-21 0 -13 -48 -87 -83 -128 -16 -18 -36 -48 -44 -67 -9 -18 -20 -31 -24 -28
-14 9 -47 -15 -55 -38 -6 -23 -80 -138 -94 -148 -12 -9 -19 -359 -10 -495 14
-201 21 -267 31 -305 5 -19 9 -57 9 -83 0 -121 42 -265 177 -612 54 -139 103
-275 98 -275 -15 0 -144 240 -185 345 -33 85 -49 113 -74 137 -18 16 -35 47
-43 75 -7 27 -16 59 -19 72 -5 18 -3 22 7 19 9 -3 19 7 27 25 18 45 15 75 -9
82 -23 8 -39 -7 -39 -37 0 -10 -5 -18 -10 -18 -18 0 -50 64 -50 100 l0 35 23
-32 c26 -38 53 -42 63 -11 10 32 7 77 -5 92 -6 7 -8 27 -5 44 5 25 3 33 -11
39 -17 6 -41 -14 -63 -53 -4 -7 -20 -14 -37 -16 l-30 -3 -13 85 c-7 47 -16
123 -21 170 -8 79 -29 158 -50 184 -24 30 -23 57 4 78 23 18 26 25 20 62 -9
61 -25 107 -52 148 -25 40 -30 97 -11 116 7 7 39 12 74 12 35 0 65 4 69 10 3
5 12 7 20 3 27 -10 65 6 65 27 0 23 -37 36 -74 26 -20 -5 -31 3 -68 47 -24 28
-55 67 -67 85 l-23 34 36 37 c20 20 36 43 36 50 0 8 9 29 21 47 12 20 18 42
14 53 -5 17 3 23 62 40 38 11 79 30 92 42 21 19 21 22 6 39 -8 9 -33 25 -55
35 -48 22 -51 35 -7 35 76 0 237 67 237 99 0 8 -15 27 -32 42 -40 33 -34 40
47 64 61 19 179 79 225 115 20 16 23 22 14 37 -10 16 -5 20 45 33 49 13 56 18
59 43 4 33 28 47 96 57 28 4 -308 8 -746 9 l-798 1 2 -1972z m3275 1956 c-3
-3 -12 -4 -19 -1 -8 3 -5 6 6 6 11 1 17 -2 13 -5z m-197 -195 c138 -58 141
-61 228 -237 102 -207 138 -321 159 -512 7 -70 20 -93 68 -123 25 -16 65 -45
89 -65 67 -55 225 -239 246 -286 43 -96 134 -535 165 -789 10 -88 19 -124 34
-143 25 -32 27 -52 5 -50 -11 1 -16 -10 -19 -41 -3 -37 1 -47 37 -88 40 -46
46 -74 8 -40 -34 31 -35 7 -2 -34 31 -39 42 -81 22 -81 -5 0 -15 9 -22 20 -13
21 -28 27 -28 11 0 -5 16 -33 36 -62 l37 -52 -7 -91 c-10 -132 -32 -231 -71
-313 -58 -125 -94 -175 -408 -577 -91 -115 -286 -335 -345 -388 -91 -82 -405
-207 -542 -215 -69 -5 -82 -2 -165 32 -106 44 -480 235 -545 278 -152 103
-315 258 -385 365 -67 104 -206 388 -260 532 -25 69 -64 161 -85 205 -21 44
-54 123 -73 175 -19 52 -60 164 -91 248 -135 366 -136 368 -182 777 -23 198
-23 583 -1 637 23 55 75 73 91 32 3 -8 12 -14 20 -14 15 0 19 13 31 115 8 61
40 132 66 146 36 19 56 2 71 -59 8 -33 19 -57 27 -57 8 0 24 41 42 113 40 159
42 161 78 80 17 -36 35 -69 41 -73 14 -9 26 26 46 135 14 75 23 100 44 121 35
35 109 52 248 55 112 2 114 2 145 32 40 39 202 122 237 122 37 0 55 -24 77
-99 10 -36 24 -66 30 -68 7 -3 21 28 36 73 13 43 28 79 34 81 5 2 17 -13 26
-33 11 -23 23 -34 34 -32 21 4 41 60 42 116 2 73 11 82 92 82 40 0 85 -7 107
-15 24 -11 50 -14 74 -10 35 6 39 4 55 -25 36 -64 40 -67 58 -49 11 11 19 40
23 85 2 38 10 72 16 76 6 4 38 8 71 8 45 0 79 -8 135 -31z m1321 -1771 c52
-29 103 -109 139 -218 25 -72 32 -113 37 -213 5 -109 3 -132 -15 -193 -31 -98
-53 -131 -97 -140 -45 -8 -59 -33 -50 -91 l7 -45 -39 7 c-48 8 -78 -13 -91
-65 -6 -23 -14 -34 -23 -31 -43 12 -66 11 -78 -3 -8 -9 -17 -16 -22 -16 -12 0
0 179 13 207 10 21 48 35 131 48 23 4 43 14 52 28 26 40 46 166 43 267 -2 52
1 105 5 117 6 17 0 30 -29 62 -20 23 -54 51 -75 63 -47 26 -49 42 -9 63 59 31
126 13 168 -44 24 -34 48 -42 38 -13 -40 103 -147 143 -232 86 -21 -15 -45
-35 -52 -45 -20 -29 -29 -23 -37 26 -9 64 16 113 75 143 56 28 92 28 141 0z
m-172 -529 c12 -22 11 -30 -9 -77 -12 -28 -26 -52 -31 -52 -11 0 -12 48 -3
114 7 50 20 55 43 15z m146 -419 c7 -23 -1 -40 -20 -40 -8 0 -17 5 -20 10 -9
15 4 50 20 50 8 0 16 -9 20 -20z m131 -163 c4 -40 3 -67 -3 -67 -22 0 -33 28
-33 85 0 107 24 94 36 -18z m-262 -189 c4 -35 8 -91 10 -125 l3 -61 -24 34
c-19 29 -23 48 -23 109 0 40 3 80 6 89 12 32 23 15 28 -46z m256 11 c0 -11 -4
-18 -10 -14 -5 3 -7 12 -3 20 7 21 13 19 13 -6z m-3075 -19 c4 -6 7 -47 8 -93
2 -67 7 -89 26 -120 17 -28 28 -36 40 -32 40 17 46 12 51 -51 5 -63 16 -85 60
-118 39 -30 160 -156 160 -166 0 -21 -40 -9 -87 26 -98 73 -179 181 -249 330
-39 83 -44 102 -44 164 0 54 3 70 14 70 8 0 18 -5 21 -10z m65 -155 c0 -8 -2
-15 -4 -15 -2 0 -6 7 -10 15 -3 8 -1 15 4 15 6 0 10 -7 10 -15z m2978 -49 c-1
-25 6 -43 30 -72 18 -21 32 -49 32 -61 0 -13 5 -23 10 -23 6 0 10 -8 10 -17 0
-15 2 -16 10 -3 8 13 10 12 10 -2 0 -10 -4 -18 -8 -18 -14 0 0 -74 20 -103 20
-28 18 -62 -4 -55 -7 3 -32 51 -55 109 -24 57 -52 124 -64 148 -29 61 -31 81
-14 108 21 31 26 29 23 -11z m-198 -88 c0 -28 -4 -38 -15 -38 -23 0 -28 25
-15 66 15 44 30 29 30 -28z m750 -24 c0 -8 -4 -12 -10 -9 -6 4 -10 -8 -10 -29
0 -32 -3 -36 -24 -34 -25 2 -25 22 0 32 8 3 14 17 14 31 0 16 6 25 15 25 8 0
15 -7 15 -16z m83 9 c-7 -2 -21 -2 -30 0 -10 3 -4 5 12 5 17 0 24 -2 18 -5z
m76 -100 c-13 -59 -11 -103 6 -108 8 -3 23 -8 33 -12 16 -6 16 -6 0 -10 -10
-3 -18 -9 -18 -14 0 -4 -11 -16 -26 -25 -19 -13 -28 -14 -37 -5 -8 8 -6 11 9
11 18 1 18 1 0 11 -14 9 -20 8 -27 -2 -5 -9 -9 -6 -14 12 -5 21 -11 24 -50 23
-41 -1 -45 2 -45 22 0 18 -8 26 -32 32 l-33 9 48 13 c40 11 47 16 47 37 0 23
3 25 29 20 42 -9 101 3 101 20 0 8 4 12 9 9 5 -4 5 -22 0 -43z m-239 -74 c0
-11 -4 -17 -10 -14 -5 3 -10 13 -10 21 0 8 5 14 10 14 6 0 10 -9 10 -21z
m-276 -51 c-3 -5 -12 -7 -19 -4 -7 2 -16 -2 -19 -10 -3 -8 -10 -14 -15 -14
-12 0 -2 32 12 41 13 9 48 -2 41 -13z m307 13 c11 -1 15 -12 15 -45 -1 -24 -5
-48 -9 -52 -7 -8 -97 80 -97 95 0 5 35 6 91 2z m-261 -71 c0 -11 -34 -45 -68
-68 -17 -11 -26 -12 -34 -4 -18 18 -1 42 44 62 49 22 58 24 58 10z"/>
<path d="M2915 5841 c-10 -18 102 -325 138 -375 36 -51 173 -156 203 -156 29
0 12 20 -69 83 -96 75 -126 123 -197 317 -44 119 -62 151 -75 131z"/>
<path d="M2798 5218 c-39 -29 -392 -390 -488 -501 -57 -66 -150 -98 -180 -62
-37 44 -56 -13 -19 -59 25 -31 43 -32 133 -6 80 23 110 48 192 157 151 203
320 385 389 420 47 24 56 25 155 20 73 -4 130 -14 188 -32 82 -26 101 -27 87
-6 -21 34 -253 101 -351 101 -52 0 -66 -4 -106 -32z"/>
<path d="M1077 4953 c-4 -3 -4 -85 -1 -182 6 -156 4 -187 -15 -278 -23 -113
-26 -143 -11 -143 17 0 70 227 70 303 0 74 -23 307 -30 307 -4 0 -10 -3 -13
-7z"/>
<path d="M2805 4857 c-59 -20 -84 -34 -145 -86 -92 -77 -159 -156 -160 -188 0
-22 25 -14 41 14 33 54 164 174 219 200 48 24 68 27 157 28 66 0 106 -4 114
-12 9 -9 3 -13 -27 -17 -146 -22 -282 -79 -364 -153 -56 -51 -120 -149 -123
-190 -3 -45 24 -34 52 22 47 90 123 161 230 213 94 46 98 47 207 50 98 4 117
1 163 -19 44 -19 54 -20 62 -8 12 19 -16 41 -72 58 -83 25 -99 33 -99 51 0 10
-7 24 -16 31 -23 19 -188 23 -239 6z"/>
<path d="M3383 4575 c-91 -46 -198 -154 -175 -177 8 -8 26 5 64 44 30 30 76
68 102 83 73 43 115 39 236 -22 64 -33 102 -47 107 -40 14 22 -98 92 -196 121
-71 21 -78 21 -138 -9z"/>
<path d="M1912 4536 c-16 -35 -52 -38 -369 -34 -320 4 -305 8 -366 -114 -37
-75 -76 -221 -77 -285 0 -39 27 -47 34 -10 28 150 38 183 72 238 58 97 47 94
348 92 261 -1 345 7 382 38 19 15 19 99 1 99 -8 0 -19 -11 -25 -24z"/>
<path d="M2040 4441 c0 -5 7 -28 15 -51 29 -82 17 -134 -57 -248 -36 -55 -40
-67 -34 -103 11 -71 40 -114 88 -132 57 -22 78 -22 78 2 0 23 -40 84 -88 133
l-35 37 43 73 c40 67 44 80 47 153 3 67 1 85 -16 113 -20 30 -41 43 -41 23z"/>
<path d="M3395 4429 c-22 -12 -83 -49 -135 -84 -127 -84 -169 -110 -237 -146
-165 -90 -288 -152 -378 -190 -55 -23 -176 -78 -270 -122 -253 -118 -522 -231
-640 -268 -33 -10 -107 -28 -164 -39 -110 -22 -156 -45 -172 -87 -14 -39 -11
-168 7 -220 29 -87 192 -406 281 -549 131 -211 158 -248 252 -343 143 -144
238 -209 406 -281 59 -25 180 -40 250 -30 201 28 583 172 737 277 141 96 297
282 387 459 100 199 125 318 126 594 0 215 -26 425 -81 660 -50 212 -53 220
-106 272 -46 45 -174 118 -207 118 -9 0 -34 -9 -56 -21z m23 -125 c53 -16 60
-16 109 1 50 17 55 17 91 1 49 -22 54 -32 90 -162 44 -159 49 -200 26 -226
-28 -30 -76 -48 -134 -48 -54 0 -63 10 -28 34 l22 16 -24 0 c-14 -1 -54 -7
-90 -15 -36 -8 -101 -22 -145 -31 -44 -8 -123 -29 -175 -46 -174 -55 -394
-131 -465 -160 -38 -16 -93 -37 -120 -47 -238 -86 -855 -384 -855 -414 0 -4
10 -11 23 -16 15 -6 26 -23 35 -56 13 -51 8 -66 -30 -86 -28 -15 -121 -38
-130 -33 -14 9 -8 24 10 24 26 0 122 47 122 60 0 6 -8 9 -17 6 -10 -2 -50 -14
-90 -25 -103 -31 -109 -27 -169 111 -46 107 -49 118 -49 200 0 118 0 118 195
161 105 24 191 50 265 82 60 26 143 60 185 77 68 27 298 132 425 193 28 14
115 52 195 86 149 63 329 156 435 225 101 65 179 104 208 104 16 0 54 -7 85
-16z m381 -1063 c13 -8 12 -24 -3 -113 -61 -350 -310 -681 -631 -837 -188 -91
-522 -191 -637 -191 -132 0 -307 79 -466 210 -51 42 -52 64 -3 97 50 34 76 30
105 -16 78 -123 232 -162 441 -111 101 24 332 96 415 130 76 30 244 125 311
177 32 23 75 63 97 88 58 66 166 231 199 306 23 50 39 71 69 89 l39 25 -32 3
c-45 4 -41 18 12 50 60 37 54 56 -13 36 -39 -11 -15 22 31 45 48 24 47 24 66
12z m-2024 -230 c-3 -6 -14 -11 -23 -11 -13 0 -13 2 4 14 21 15 30 14 19 -3z
m365 -459 c0 -10 -71 -34 -78 -27 -3 3 1 11 8 20 13 16 70 21 70 7z m10 -50
c0 -19 -101 -82 -130 -82 -27 0 -3 46 35 67 40 22 95 31 95 15z"/>
<path d="M1605 4316 c-72 -22 -171 -85 -224 -141 -50 -52 -62 -75 -40 -75 5 0
41 27 80 60 38 33 97 75 132 92 59 32 67 33 177 33 116 1 143 9 99 32 -31 16
-172 15 -224 -1z"/>
<path d="M1601 4210 c-83 -33 -147 -88 -207 -178 -41 -61 -69 -135 -60 -159 6
-14 8 -14 25 1 11 10 22 30 26 44 18 73 115 182 202 225 87 44 212 60 321 43
49 -7 54 -7 50 10 -5 29 -63 43 -178 43 -93 0 -114 -3 -179 -29z"/>
<path d="M2204 4059 c-9 -15 14 -29 49 -29 31 0 36 15 8 30 -26 13 -48 13 -57
-1z"/>
<path d="M5105 2511 c-3 -5 2 -11 10 -15 8 -3 17 -1 20 3 3 5 -2 11 -10 15 -8
3 -17 1 -20 -3z"/>
<path d="M1892 6179 c-19 -82 -14 -149 11 -149 6 0 20 9 32 19 56 54 74 68 79
64 10 -10 46 19 80 67 l36 50 -113 0 -114 0 -11 -51z"/>
<path d="M2522 6208 c4 -30 24 -33 45 -9 21 25 33 27 33 6 0 -19 66 -21 72 -3
3 9 10 8 22 -5 17 -17 20 -16 54 5 21 12 39 23 41 25 2 2 -57 3 -133 3 -135 0
-137 0 -134 -22z"/>
<path d="M1800 6140 c-16 -29 -9 -81 13 -94 25 -16 38 8 35 64 -3 51 -28 67
-48 30z"/>
<path d="M3269 6144 c-48 -14 -70 -40 -43 -51 23 -9 86 4 103 22 13 13 13 17
1 29 -13 12 -22 12 -61 0z"/>
<path d="M1556 6062 c-3 -5 12 -28 33 -52 34 -39 40 -43 55 -31 24 20 20 36
-18 65 -35 26 -61 33 -70 18z"/>
<path d="M1520 5971 c0 -21 48 -61 73 -61 23 0 28 27 9 49 -9 11 -32 23 -49
26 -28 4 -33 2 -33 -14z"/>
<path d="M1311 5866 c-19 -23 14 -39 82 -40 48 -1 62 2 65 15 6 33 -122 56
-147 25z"/>
<path d="M3801 5831 c-26 -20 -24 -51 3 -51 45 0 91 45 64 62 -20 12 -41 9
-67 -11z"/>
<path d="M3470 5777 c-58 -20 -73 -32 -66 -55 6 -19 9 -19 59 -6 74 19 96 32
90 55 -6 22 -30 23 -83 6z"/>
<path d="M3837 5754 c-4 -4 -7 -16 -7 -26 0 -13 7 -18 26 -18 21 0 25 4 22 22
-3 23 -27 35 -41 22z"/>
<path d="M1120 5731 c0 -13 16 -29 41 -45 67 -39 96 -11 38 38 -37 32 -79 35
-79 7z"/>
<path d="M1087 5673 c-15 -15 -5 -41 21 -53 27 -13 27 -14 -27 -21 -58 -8 -77
-20 -68 -43 15 -37 145 -5 166 40 18 39 14 48 -32 67 -47 19 -51 20 -60 10z"/>
<path d="M3918 5672 c-29 -2 -38 -8 -38 -22 0 -33 72 -43 89 -11 14 26 -4 37
-51 33z"/>
<path d="M3935 5440 c-20 -32 81 -65 110 -37 13 13 11 17 -19 31 -39 18 -82
21 -91 6z"/>
<path d="M3583 5424 c-8 -22 22 -44 61 -44 57 0 105 12 111 28 9 24 -14 32
-93 32 -58 0 -74 -3 -79 -16z"/>
<path d="M868 5384 c-22 -7 -32 -35 -16 -46 18 -11 131 -5 135 7 9 30 -66 54
-119 39z"/>
<path d="M3628 5359 c-10 -5 -18 -16 -18 -24 0 -21 28 -32 86 -34 83 -3 96 41
18 59 -50 12 -65 12 -86 -1z"/>
<path d="M3993 5363 c-19 -7 -15 -31 7 -43 29 -15 136 -25 144 -12 11 18 -4
38 -38 50 -33 12 -90 15 -113 5z"/>
<path d="M827 5286 c-8 -22 14 -36 55 -36 41 0 63 24 37 41 -22 14 -86 11 -92
-5z"/>
<path d="M3638 5279 c-20 -11 -14 -34 10 -44 39 -16 121 -31 132 -25 25 16 0
47 -51 64 -59 18 -68 19 -91 5z"/>
<path d="M4025 5230 c-10 -16 13 -39 64 -64 51 -25 71 -24 71 4 0 43 -115 93
-135 60z"/>
<path d="M4027 4883 c-14 -14 -6 -34 18 -45 31 -14 32 -26 3 -30 -32 -4 -28
-30 7 -46 62 -30 81 -40 112 -58 25 -15 35 -16 44 -7 16 16 -6 63 -28 63 -11
0 -13 8 -8 31 5 22 2 36 -12 51 -32 36 -116 62 -136 41z"/>
<path d="M767 4848 c-18 -14 -13 -63 5 -52 6 4 3 -5 -6 -18 -16 -25 -13 -58 6
-58 5 0 22 7 38 15 27 14 30 20 30 64 0 35 -4 51 -16 55 -24 9 -38 7 -57 -6z"/>
<path d="M4055 4700 c-10 -17 13 -47 42 -55 15 -3 39 -15 54 -26 15 -10 31
-19 36 -19 6 0 18 -9 28 -20 42 -47 75 -8 36 42 -41 52 -178 107 -196 78z"/>
<path d="M785 4669 c-4 -5 -4 -21 -1 -35 6 -21 9 -23 26 -14 27 14 27 60 1 60
-11 0 -23 -5 -26 -11z"/>
<path d="M5934 2309 c-44 -53 -140 -317 -198 -544 -20 -77 -50 -189 -66 -250
-72 -275 -102 -453 -103 -615 -1 -145 25 -270 128 -630 38 -130 92 -265 108
-268 23 -5 21 8 -8 81 -54 137 -115 346 -166 572 -29 131 -31 149 -26 280 7
188 87 581 177 875 11 36 31 101 44 145 13 44 47 137 76 208 48 119 62 182 34
146z"/>
<path d="M1538 2213 c12 -2 32 -2 45 0 12 2 2 4 -23 4 -25 0 -35 -2 -22 -4z"/>
<path d="M1889 959 c-49 -49 -124 -151 -220 -295 -81 -120 -149 -227 -152
-236 -25 -73 73 54 288 375 22 33 68 92 103 133 87 102 73 118 -19 23z"/>
<path d="M1092 907 c-26 -31 -116 -262 -147 -379 -55 -204 -87 -352 -100 -470
-6 -54 -5 -58 14 -58 18 0 21 6 21 48 1 72 55 348 90 452 10 30 26 82 35 115
10 33 39 109 66 168 27 60 49 115 49 123 0 17 -14 18 -28 1z"/>
<path d="M583 848 c-19 -24 -43 -154 -55 -304 -16 -204 -15 -310 1 -437 13
-94 17 -107 34 -107 16 0 18 5 12 27 -34 136 -20 580 24 773 10 46 2 71 -16
48z"/>
<path d="M613 724 c-10 -24 -9 -566 1 -656 5 -41 12 -68 19 -68 9 0 11 89 9
363 -4 337 -9 410 -29 361z"/>
<path d="M1283 598 c-21 -29 -69 -100 -106 -158 -38 -58 -94 -145 -126 -195
-32 -50 -77 -125 -100 -167 -37 -69 -39 -78 -22 -78 13 0 29 20 54 68 71 137
179 309 308 489 33 44 59 84 59 87 0 3 -6 6 -14 6 -7 0 -31 -24 -53 -52z"/>
<path d="M5830 391 c0 -21 92 -212 153 -318 27 -46 48 -72 60 -73 9 0 17 3 17
6 0 3 -24 46 -54 97 -29 51 -77 140 -106 200 -51 103 -70 127 -70 88z"/>
<path d="M170 218 c1 -24 38 -143 60 -190 15 -32 58 -41 45 -10 -8 18 -73 188
-80 210 -7 21 -25 13 -25 -10z"/>
</g>
</svg>
